<svg version="1.1" id="Layer_1" xmlns="http://www.w3.org/2000/svg" xmlns:xlink="http://www.w3.org/1999/xlink" x="0px" y="0px"
	 width="100%" viewBox="0 0 512 512" enable-background="new 0 0 512 512" xml:space="preserve">
<path fill="#FFFEFE" opacity="1.000000" stroke="none" 
	d="
M341.000000,513.000000 
	C227.360947,513.000000 114.221886,513.000000 1.041413,513.000000 
	C1.041413,342.402588 1.041413,171.805161 1.041413,1.103867 
	C171.555725,1.103867 342.111542,1.103867 512.833679,1.103867 
	C512.833679,171.666534 512.833679,342.333252 512.833679,513.000000 
	C455.805145,513.000000 398.652557,513.000000 341.000000,513.000000 
M375.630646,285.892761 
	C371.613770,285.060669 371.978149,287.711426 371.980377,290.312164 
	C372.011475,326.635315 371.998322,362.958466 372.014679,399.281647 
	C372.015228,400.537842 372.209991,401.793976 372.302246,402.905396 
	C386.011353,402.905396 399.292786,402.905396 413.028168,402.905396 
	C413.028168,389.307892 413.028168,375.903717 413.028168,362.361389 
	C420.722473,362.361389 427.958099,362.361389 435.721252,362.361389 
	C435.721252,375.994324 435.721252,389.383820 435.721252,402.840912 
	C449.496735,402.840912 462.740875,402.840912 476.097748,402.840912 
	C476.097748,363.832825 476.097748,325.091400 476.097748,286.273438 
	C462.527161,286.273438 449.169281,286.273438 435.466614,286.273438 
	C435.466614,300.597168 435.466614,314.541992 435.466614,328.650696 
	C427.875458,328.650696 420.636078,328.650696 412.945038,328.650696 
	C412.945038,314.343170 412.945038,300.270325 412.945038,285.892670 
	C400.531464,285.892670 388.568268,285.892670 375.630646,285.892761 
M358.286438,111.002014 
	C345.053192,111.002014 331.819946,111.002014 318.324463,111.002014 
	C318.324463,113.490623 318.324463,115.304451 318.324463,117.118271 
	C318.324463,139.945206 318.426453,162.773148 318.203644,185.597916 
	C318.173615,188.672577 317.437469,192.781189 315.406586,194.577621 
	C311.248566,198.255569 305.685822,197.603073 300.735168,195.618408 
	C296.615997,193.967117 296.658752,190.005905 296.662872,186.241852 
	C296.688171,163.081711 296.675537,139.921509 296.675537,116.761337 
	C296.675537,114.967972 296.675537,113.174606 296.675537,111.238152 
	C282.828156,111.238152 269.460754,111.238152 255.994827,111.238152 
	C255.994827,138.390457 255.557861,165.210373 256.134430,192.008469 
	C256.587891,213.085052 266.207520,224.456497 286.944550,228.155792 
	C297.465607,230.032654 308.440674,229.553055 319.216705,229.709045 
	C322.976501,229.763489 326.812805,228.761734 330.515137,227.843109 
	C349.332184,223.174225 358.733704,210.684006 358.937805,189.204865 
	C359.183167,163.382172 358.950867,137.554947 358.286438,111.002014 
M228.500092,403.110046 
	C235.301224,403.110046 242.102356,403.110046 249.419449,403.110046 
	C240.554611,363.777527 231.804031,324.951874 223.061203,286.160645 
	C202.294037,286.160645 181.872940,286.160645 161.335739,286.160645 
	C152.734818,325.110809 144.185471,363.827393 135.592484,402.741608 
	C149.227478,402.741608 162.437393,402.741608 175.550674,402.741608 
	C176.549957,398.206085 177.467514,394.041412 178.421860,389.709808 
	C186.620987,389.709808 194.437256,389.577271 202.239639,389.846436 
	C203.471390,389.888947 205.244171,391.523621 205.719711,392.809387 
	C206.909485,396.026428 207.497879,399.465912 208.400345,403.110046 
	C214.887909,403.110046 221.194153,403.110046 228.500092,403.110046 
M430.427582,230.278503 
	C434.061981,229.892975 437.723175,229.673798 441.326324,229.093964 
	C459.869263,226.109940 469.541931,215.894409 471.196014,197.202667 
	C471.662262,191.933868 471.316620,186.584778 471.207458,181.275299 
	C470.998566,171.114059 465.989197,163.982712 457.032898,159.537628 
	C454.216766,158.139954 451.310211,156.780365 448.293884,155.957153 
	C439.010956,153.423706 429.614319,151.300079 420.364777,148.657089 
	C418.707794,148.183609 417.541199,145.993896 416.148193,144.596619 
	C417.790924,143.766190 419.428467,142.235123 421.077179,142.223007 
	C429.560699,142.160538 438.054474,142.331253 446.530151,142.729355 
	C453.248657,143.044937 459.946198,143.806091 467.320740,144.425476 
	C467.320740,133.567627 467.320740,123.331993 467.320740,112.672867 
	C457.974731,111.507202 448.435425,109.909363 438.830872,109.219009 
	C425.741425,108.278168 412.583984,107.488892 399.642212,110.929893 
	C388.606659,113.864075 379.984314,119.803200 377.459961,131.430740 
	C375.820618,138.981613 375.069946,146.919540 375.311981,154.640457 
	C375.701874,167.079819 380.561768,177.333694 393.229095,182.023590 
	C397.423340,183.576477 401.686310,185.059647 406.037750,186.045654 
	C413.003143,187.623978 420.093597,188.647064 427.069702,190.183975 
	C428.405975,190.478363 429.458435,192.060898 430.641815,193.049164 
	C429.525818,194.141663 428.572632,195.846405 427.259064,196.195648 
	C424.742737,196.864639 421.998901,197.101028 419.389343,196.925278 
	C405.664001,196.000931 391.951141,194.891708 377.703064,193.806213 
	C377.113892,203.668411 376.512695,213.732147 375.893127,224.103470 
	C393.642853,228.598602 411.389038,230.720764 430.427582,230.278503 
M271.252930,369.250031 
	C268.357025,368.944000 265.461121,368.637939 262.365997,368.310852 
	C261.809601,378.805084 261.275391,388.881409 260.720642,399.345367 
	C266.520050,400.498810 271.844940,401.752228 277.234161,402.593384 
	C293.555481,405.140747 309.955109,406.858643 326.404327,404.037659 
	C340.546417,401.612335 351.877777,394.829926 354.628815,379.795929 
	C356.275421,370.797638 355.709198,361.298737 355.335327,352.057312 
	C355.046844,344.927124 350.686005,339.673706 344.575500,336.218323 
	C340.848511,334.110809 336.913147,332.137604 332.825714,330.949158 
	C323.591888,328.264465 314.170624,326.228058 304.916107,323.608154 
	C303.382904,323.174164 302.307587,321.122925 301.020660,319.819000 
	C302.566742,318.919037 304.101593,317.268585 305.660828,317.245239 
	C313.640839,317.125763 321.635498,317.250580 329.608765,317.630768 
	C336.844818,317.975800 344.059967,318.758575 351.991302,319.406097 
	C351.991302,308.669495 351.991302,298.585602 351.991302,287.684418 
	C343.298370,286.588959 334.132599,285.106598 324.907349,284.348663 
	C311.322693,283.232605 297.700104,282.446777 284.254456,285.943451 
	C271.629761,289.226562 263.115570,296.846802 261.319580,309.915192 
	C260.157867,318.368408 260.273804,327.141785 260.997711,335.671539 
	C261.830963,345.489655 267.432098,352.593201 276.676056,356.445404 
	C280.036285,357.845703 283.453308,359.267212 286.982849,360.071838 
	C295.076294,361.916901 303.280243,363.276886 311.375519,365.114868 
	C312.822754,365.443451 313.963379,367.122345 315.245605,368.177734 
	C313.964935,369.305939 312.853485,370.901825 311.360107,371.442139 
	C309.556580,372.094666 307.412323,372.095215 305.445007,371.957367 
	C294.333893,371.178894 283.231628,370.274323 271.252930,369.250031 
M47.899620,219.467789 
	C47.899620,222.242081 47.899620,225.016373 47.899620,227.761505 
	C61.668125,227.761505 74.883034,227.761505 88.441208,227.761505 
	C88.441208,219.484802 88.441208,211.544891 88.441208,203.100372 
	C91.220879,203.100372 93.689095,203.279892 96.122726,203.066025 
	C102.897888,202.470642 109.745956,202.176651 116.407845,200.925537 
	C132.566956,197.890808 142.974823,188.560654 145.818314,171.937256 
	C147.711746,160.868118 147.702103,149.792862 145.210785,138.746399 
	C142.496078,126.709442 135.637573,118.485931 123.715904,114.898071 
	C119.445770,113.612968 115.036835,112.111496 110.655479,111.989067 
	C90.043564,111.413086 69.419243,111.279793 48.798969,111.018646 
	C48.553593,111.015533 48.303165,111.411194 47.899620,111.752022 
	C47.899620,147.240555 47.899620,182.856964 47.899620,219.467789 
M91.238007,283.379303 
	C84.119057,283.944916 76.919586,284.021637 69.897972,285.178162 
	C55.387383,287.568176 44.980804,295.293610 41.420349,310.162872 
	C35.944275,333.032196 35.835560,356.074310 41.440002,378.881744 
	C44.671131,392.030945 53.292694,401.061676 67.042297,403.035828 
	C77.668182,404.561432 88.553223,405.058075 99.291344,404.781342 
	C107.949570,404.558289 116.560410,402.495667 124.686874,401.322144 
	C124.686874,390.181641 124.686874,380.110168 124.686874,370.887482 
	C114.260483,370.887482 104.283997,371.007324 94.311752,370.852753 
	C84.899803,370.706848 80.674446,367.740448 79.752785,358.581848 
	C78.792786,349.042328 78.798882,339.291168 79.566246,329.727509 
	C80.211067,321.691101 84.415405,318.688416 92.592751,318.096252 
	C94.582855,317.952148 96.588791,318.006287 98.587479,318.004303 
	C107.002953,317.995911 115.418442,318.000763 124.485458,318.000763 
	C124.485458,308.590302 124.485458,298.364136 124.485458,287.262756 
	C113.881241,286.052277 102.998726,284.809998 91.238007,283.379303 
M163.723358,129.500320 
	C163.723358,162.240326 163.723358,194.980331 163.723358,227.828674 
	C190.154037,227.828674 216.040451,227.828674 242.044952,227.828674 
	C242.044952,216.820389 242.044952,206.083862 242.044952,194.808502 
	C229.440643,194.808502 217.057571,194.808502 204.155609,194.808502 
	C204.155609,166.576309 204.155609,138.879303 204.155609,111.228203 
	C190.389832,111.228203 177.160233,111.228203 163.723328,111.228203 
	C163.723328,117.203148 163.723328,122.851952 163.723358,129.500320 
z"/>
<path fill="#0F172A" opacity="1.000000" stroke="none" 
	d="
M376.117859,285.892700 
	C388.568268,285.892670 400.531464,285.892670 412.945038,285.892670 
	C412.945038,300.270325 412.945038,314.343170 412.945038,328.650696 
	C420.636078,328.650696 427.875458,328.650696 435.466614,328.650696 
	C435.466614,314.541992 435.466614,300.597168 435.466614,286.273438 
	C449.169281,286.273438 462.527161,286.273438 476.097748,286.273438 
	C476.097748,325.091400 476.097748,363.832825 476.097748,402.840912 
	C462.740875,402.840912 449.496735,402.840912 435.721252,402.840912 
	C435.721252,389.383820 435.721252,375.994324 435.721252,362.361389 
	C427.958099,362.361389 420.722473,362.361389 413.028168,362.361389 
	C413.028168,375.903717 413.028168,389.307892 413.028168,402.905396 
	C399.292786,402.905396 386.011353,402.905396 372.302246,402.905396 
	C372.209991,401.793976 372.015228,400.537842 372.014679,399.281647 
	C371.998322,362.958466 372.011475,326.635315 371.980377,290.312164 
	C371.978149,287.711426 371.613770,285.060669 376.117859,285.892700 
z"/>
<path fill="#FE0202" opacity="1.000000" stroke="none" 
	d="
M358.605896,111.365845 
	C358.950867,137.554947 359.183167,163.382172 358.937805,189.204865 
	C358.733704,210.684006 349.332184,223.174225 330.515137,227.843109 
	C326.812805,228.761734 322.976501,229.763489 319.216705,229.709045 
	C308.440674,229.553055 297.465607,230.032654 286.944550,228.155792 
	C266.207520,224.456497 256.587891,213.085052 256.134430,192.008469 
	C255.557861,165.210373 255.994827,138.390457 255.994827,111.238152 
	C269.460754,111.238152 282.828156,111.238152 296.675537,111.238152 
	C296.675537,113.174606 296.675537,114.967972 296.675537,116.761337 
	C296.675537,139.921509 296.688171,163.081711 296.662872,186.241852 
	C296.658752,190.005905 296.615997,193.967117 300.735168,195.618408 
	C305.685822,197.603073 311.248566,198.255569 315.406586,194.577621 
	C317.437469,192.781189 318.173615,188.672577 318.203644,185.597916 
	C318.426453,162.773148 318.324463,139.945206 318.324463,117.118271 
	C318.324463,115.304451 318.324463,113.490623 318.324463,111.002014 
	C331.819946,111.002014 345.053192,111.002014 358.605896,111.365845 
z"/>
<path fill="#10182B" opacity="1.000000" stroke="none" 
	d="
M228.000244,403.110046 
	C221.194153,403.110046 214.887909,403.110046 208.400345,403.110046 
	C207.497879,399.465912 206.909485,396.026428 205.719711,392.809387 
	C205.244171,391.523621 203.471390,389.888947 202.239639,389.846436 
	C194.437256,389.577271 186.620987,389.709808 178.421860,389.709808 
	C177.467514,394.041412 176.549957,398.206085 175.550674,402.741608 
	C162.437393,402.741608 149.227478,402.741608 135.592484,402.741608 
	C144.185471,363.827393 152.734818,325.110809 161.335739,286.160645 
	C181.872940,286.160645 202.294037,286.160645 223.061203,286.160645 
	C231.804031,324.951874 240.554611,363.777527 249.419449,403.110046 
	C242.102356,403.110046 235.301224,403.110046 228.000244,403.110046 
M196.005219,327.367218 
	C194.279160,324.211304 197.643829,318.037567 190.260788,317.556000 
	C188.144958,330.453278 186.097305,342.870453 184.090576,355.294250 
	C183.936188,356.250122 184.070282,357.252594 184.070282,358.469208 
	C189.605560,358.469208 195.021851,358.469208 200.851807,358.469208 
	C199.228088,348.186279 197.652756,338.209869 196.005219,327.367218 
z"/>
<path fill="#FE0101" opacity="1.000000" stroke="none" 
	d="
M429.936951,230.279587 
	C411.389038,230.720764 393.642853,228.598602 375.893127,224.103470 
	C376.512695,213.732147 377.113892,203.668411 377.703064,193.806213 
	C391.951141,194.891708 405.664001,196.000931 419.389343,196.925278 
	C421.998901,197.101028 424.742737,196.864639 427.259064,196.195648 
	C428.572632,195.846405 429.525818,194.141663 430.641815,193.049164 
	C429.458435,192.060898 428.405975,190.478363 427.069702,190.183975 
	C420.093597,188.647064 413.003143,187.623978 406.037750,186.045654 
	C401.686310,185.059647 397.423340,183.576477 393.229095,182.023590 
	C380.561768,177.333694 375.701874,167.079819 375.311981,154.640457 
	C375.069946,146.919540 375.820618,138.981613 377.459961,131.430740 
	C379.984314,119.803200 388.606659,113.864075 399.642212,110.929893 
	C412.583984,107.488892 425.741425,108.278168 438.830872,109.219009 
	C448.435425,109.909363 457.974731,111.507202 467.320740,112.672867 
	C467.320740,123.331993 467.320740,133.567627 467.320740,144.425476 
	C459.946198,143.806091 453.248657,143.044937 446.530151,142.729355 
	C438.054474,142.331253 429.560699,142.160538 421.077179,142.223007 
	C419.428467,142.235123 417.790924,143.766190 416.148193,144.596619 
	C417.541199,145.993896 418.707794,148.183609 420.364777,148.657089 
	C429.614319,151.300079 439.010956,153.423706 448.293884,155.957153 
	C451.310211,156.780365 454.216766,158.139954 457.032898,159.537628 
	C465.989197,163.982712 470.998566,171.114059 471.207458,181.275299 
	C471.316620,186.584778 471.662262,191.933868 471.196014,197.202667 
	C469.541931,215.894409 459.869263,226.109940 441.326324,229.093964 
	C437.723175,229.673798 434.061981,229.892975 429.936951,230.279587 
z"/>
<path fill="#10182B" opacity="1.000000" stroke="none" 
	d="
M271.689636,369.331360 
	C283.231628,370.274323 294.333893,371.178894 305.445007,371.957367 
	C307.412323,372.095215 309.556580,372.094666 311.360107,371.442139 
	C312.853485,370.901825 313.964935,369.305939 315.245605,368.177734 
	C313.963379,367.122345 312.822754,365.443451 311.375519,365.114868 
	C303.280243,363.276886 295.076294,361.916901 286.982849,360.071838 
	C283.453308,359.267212 280.036285,357.845703 276.676056,356.445404 
	C267.432098,352.593201 261.830963,345.489655 260.997711,335.671539 
	C260.273804,327.141785 260.157867,318.368408 261.319580,309.915192 
	C263.115570,296.846802 271.629761,289.226562 284.254456,285.943451 
	C297.700104,282.446777 311.322693,283.232605 324.907349,284.348663 
	C334.132599,285.106598 343.298370,286.588959 351.991302,287.684418 
	C351.991302,298.585602 351.991302,308.669495 351.991302,319.406097 
	C344.059967,318.758575 336.844818,317.975800 329.608765,317.630768 
	C321.635498,317.250580 313.640839,317.125763 305.660828,317.245239 
	C304.101593,317.268585 302.566742,318.919037 301.020660,319.819031 
	C302.307587,321.122925 303.382904,323.174164 304.916107,323.608154 
	C314.170624,326.228058 323.591888,328.264465 332.825714,330.949158 
	C336.913147,332.137604 340.848511,334.110809 344.575500,336.218323 
	C350.686005,339.673706 355.046844,344.927124 355.335327,352.057312 
	C355.709198,361.298737 356.275421,370.797638 354.628815,379.795929 
	C351.877777,394.829926 340.546417,401.612335 326.404327,404.037659 
	C309.955109,406.858643 293.555481,405.140747 277.234161,402.593384 
	C271.844940,401.752228 266.520050,400.498810 260.720642,399.345367 
	C261.275391,388.881409 261.809601,378.805084 262.365997,368.310852 
	C265.461121,368.637939 268.357025,368.944000 271.689636,369.331360 
z"/>
<path fill="#FE0000" opacity="1.000000" stroke="none" 
	d="
M47.899620,218.970581 
	C47.899620,182.856964 47.899620,147.240555 47.899620,111.752022 
	C48.303165,111.411194 48.553593,111.015533 48.798969,111.018646 
	C69.419243,111.279793 90.043564,111.413086 110.655479,111.989067 
	C115.036835,112.111496 119.445770,113.612968 123.715904,114.898071 
	C135.637573,118.485931 142.496078,126.709442 145.210785,138.746399 
	C147.702103,149.792862 147.711746,160.868118 145.818314,171.937256 
	C142.974823,188.560654 132.566956,197.890808 116.407845,200.925537 
	C109.745956,202.176651 102.897888,202.470642 96.122726,203.066025 
	C93.689095,203.279892 91.220879,203.100372 88.441208,203.100372 
	C88.441208,211.544891 88.441208,219.484802 88.441208,227.761505 
	C74.883034,227.761505 61.668125,227.761505 47.899620,227.761505 
	C47.899620,225.016373 47.899620,222.242081 47.899620,218.970581 
M91.620789,142.984451 
	C90.501122,143.744507 88.430252,144.477936 88.408119,145.268723 
	C88.172432,153.686432 88.261787,162.113251 88.261787,170.462418 
	C99.571228,172.198807 105.120049,168.710495 105.930611,159.699936 
	C107.054787,147.203262 103.773506,143.111603 91.620789,142.984451 
z"/>
<path fill="#10182B" opacity="1.000000" stroke="none" 
	d="
M91.677109,283.473511 
	C102.998726,284.809998 113.881241,286.052277 124.485458,287.262756 
	C124.485458,298.364136 124.485458,308.590302 124.485458,318.000763 
	C115.418442,318.000763 107.002953,317.995911 98.587479,318.004303 
	C96.588791,318.006287 94.582855,317.952148 92.592751,318.096252 
	C84.415405,318.688416 80.211067,321.691101 79.566246,329.727509 
	C78.798882,339.291168 78.792786,349.042328 79.752785,358.581848 
	C80.674446,367.740448 84.899803,370.706848 94.311752,370.852753 
	C104.283997,371.007324 114.260483,370.887482 124.686874,370.887482 
	C124.686874,380.110168 124.686874,390.181641 124.686874,401.322144 
	C116.560410,402.495667 107.949570,404.558289 99.291344,404.781342 
	C88.553223,405.058075 77.668182,404.561432 67.042297,403.035828 
	C53.292694,401.061676 44.671131,392.030945 41.440002,378.881744 
	C35.835560,356.074310 35.944275,333.032196 41.420349,310.162872 
	C44.980804,295.293610 55.387383,287.568176 69.897972,285.178162 
	C76.919586,284.021637 84.119057,283.944916 91.677109,283.473511 
z"/>
<path fill="#FE0000" opacity="1.000000" stroke="none" 
	d="
M163.723343,129.000549 
	C163.723328,122.851952 163.723328,117.203148 163.723328,111.228203 
	C177.160233,111.228203 190.389832,111.228203 204.155609,111.228203 
	C204.155609,138.879303 204.155609,166.576309 204.155609,194.808502 
	C217.057571,194.808502 229.440643,194.808502 242.044952,194.808502 
	C242.044952,206.083862 242.044952,216.820389 242.044952,227.828674 
	C216.040451,227.828674 190.154037,227.828674 163.723358,227.828674 
	C163.723358,194.980331 163.723358,162.240326 163.723343,129.000549 
z"/>
<path fill="#F5F5F6" opacity="1.000000" stroke="none" 
	d="
M196.041321,327.800323 
	C197.652756,338.209869 199.228088,348.186279 200.851807,358.469208 
	C195.021851,358.469208 189.605560,358.469208 184.070282,358.469208 
	C184.070282,357.252594 183.936188,356.250122 184.090576,355.294250 
	C186.097305,342.870453 188.144958,330.453278 190.260788,317.556000 
	C197.643829,318.037567 194.279160,324.211304 196.041321,327.800323 
z"/>
<path fill="#FFF6F6" opacity="1.000000" stroke="none" 
	d="
M92.073212,142.984344 
	C103.773506,143.111603 107.054787,147.203262 105.930611,159.699936 
	C105.120049,168.710495 99.571228,172.198807 88.261787,170.462418 
	C88.261787,162.113251 88.172432,153.686432 88.408119,145.268723 
	C88.430252,144.477936 90.501122,143.744507 92.073212,142.984344 
z"/>
</svg>