<svg version="1.1" id="Layer_1" xmlns="http://www.w3.org/2000/svg" xmlns:xlink="http://www.w3.org/1999/xlink" x="0px" y="0px"
	 width="100%" viewBox="0 0 800 240" enable-background="new 0 0 800 240" xml:space="preserve">
<path fill="#1E293B" opacity="1.000000" stroke="none" 
	d="
M575.000000,241.000000 
	C383.379242,241.000000 192.258499,241.000000 1.068879,241.000000 
	C1.068879,161.065186 1.068879,81.130295 1.068879,1.097704 
	C267.666656,1.097704 534.333313,1.097704 800.972656,1.097704 
	C800.972656,81.074875 800.972656,161.037445 800.972656,241.000000 
	C725.796936,241.000000 650.648438,241.000000 575.000000,241.000000 
M531.001770,131.701752 
	C534.986389,131.351807 538.970947,131.001862 543.468140,130.606888 
	C543.468140,138.897446 543.468140,146.314545 543.468140,153.747894 
	C551.513489,153.747894 559.092407,153.747894 566.758057,153.747894 
	C566.758057,131.442917 566.758057,109.397102 566.758057,87.231331 
	C558.937439,87.231331 551.366272,87.231331 543.187744,87.231331 
	C543.187744,95.329430 543.187744,103.211197 543.187744,111.055878 
	C538.820374,111.055878 535.065430,111.055878 530.752319,111.055878 
	C530.752319,102.931221 530.752319,95.047279 530.752319,87.293350 
	C522.597778,87.293350 515.014465,87.293350 507.411438,87.293350 
	C507.411438,109.631905 507.411438,131.669434 507.411438,153.758621 
	C515.302368,153.758621 522.883667,153.758621 530.908508,153.758621 
	C530.908508,146.570526 530.908508,139.621658 531.001770,131.701752 
M642.659546,149.955032 
	C643.691833,151.302841 644.668518,153.763000 645.765320,153.817795 
	C652.836060,154.171036 659.933044,153.998489 667.525574,153.998489 
	C665.529602,146.988480 663.669800,140.624817 661.940613,134.225876 
	C661.635620,133.097473 661.349121,131.332199 661.946106,130.688797 
	C668.639893,123.474960 668.702087,114.723694 667.986267,105.788124 
	C667.166687,95.557144 662.400635,89.285698 652.191650,88.235893 
	C639.820557,86.963768 627.280640,87.324280 614.812805,87.016853 
	C613.563049,86.986038 612.306641,87.221397 611.222412,87.318138 
	C611.222412,109.704559 611.222412,131.652679 611.222412,153.673264 
	C619.007874,153.673264 626.565186,153.673264 634.580078,153.673264 
	C634.580078,147.939789 634.580078,142.535034 634.580078,136.863266 
	C636.662964,136.955200 638.265198,137.025925 639.804016,137.093857 
	C640.717590,141.348297 641.554321,145.245178 642.659546,149.955032 
M208.701721,131.106995 
	C208.701721,116.507706 208.701721,101.908417 208.701721,87.362877 
	C200.396240,87.362877 192.827560,87.362877 185.086746,87.362877 
	C185.086746,103.535522 184.774109,119.350334 185.197296,135.145432 
	C185.476669,145.572906 190.979965,151.592300 201.245483,154.064072 
	C209.945572,156.158905 218.728455,156.182007 227.447159,154.091385 
	C237.373978,151.711090 243.115265,146.353241 243.564529,136.316849 
	C244.291534,120.076134 243.760162,103.779083 243.760162,87.252121 
	C236.107635,87.252121 228.707291,87.252121 220.731216,87.252121 
	C220.731216,89.280037 220.732056,91.059204 220.731094,92.838371 
	C220.724518,104.998047 220.763718,117.158043 220.678726,129.317169 
	C220.657104,132.412476 220.157623,135.576477 216.135315,135.877686 
	C212.988281,136.113358 209.554642,136.445221 208.701721,131.106995 
M700.892822,97.530670 
	C700.892822,94.100754 700.892822,90.670837 700.892822,87.267532 
	C692.657288,87.267532 685.073975,87.267532 677.306763,87.267532 
	C677.306763,103.315056 676.976868,119.102104 677.432251,134.866470 
	C677.699768,144.128769 682.296082,151.066269 691.780090,153.642181 
	C701.769226,156.355270 711.870483,156.384750 721.822205,153.597855 
	C730.223572,151.245132 735.502319,145.307358 735.791382,136.706863 
	C736.342957,120.297676 735.951477,103.856773 735.951477,87.321190 
	C728.277771,87.321190 720.736023,87.321190 712.991699,87.321190 
	C712.991699,101.783318 712.999634,115.921143 712.986694,130.058960 
	C712.982971,134.165176 710.962891,136.099945 706.781494,136.029541 
	C702.691223,135.960648 700.755066,134.360367 700.832642,129.994263 
	C701.019104,119.506966 700.892883,109.014107 700.892822,97.530670 
M452.237762,127.338020 
	C459.677124,129.458450 467.116455,131.578873 474.555817,133.699310 
	C474.464691,134.242386 474.373566,134.785461 474.282471,135.328537 
	C464.422424,137.573990 454.555145,134.276428 444.396912,134.251999 
	C444.099243,140.287033 443.816711,146.015976 443.519165,152.048737 
	C456.338593,154.798645 468.929932,157.061234 481.785370,154.730209 
	C489.906952,153.257553 496.075226,148.922531 497.691223,140.317322 
	C498.475861,136.139038 498.250336,131.746857 498.252716,127.451370 
	C498.256683,120.338203 494.231903,115.938393 487.892487,113.749443 
	C482.422638,111.860764 476.714478,110.671753 471.156891,109.021233 
	C469.660156,108.576721 468.328064,107.577873 466.920380,106.833481 
	C467.064697,106.433907 467.209015,106.034340 467.353302,105.634766 
	C476.798279,105.634766 486.243256,105.634766 495.981140,105.634766 
	C495.981140,99.924843 495.981140,94.141159 495.981140,88.098312 
	C484.171692,86.090111 472.340942,84.489273 460.356689,86.170082 
	C450.110199,87.607178 444.544373,92.720779 443.411469,102.809097 
	C442.389740,111.907631 441.578125,121.420403 452.237762,127.338020 
M301.754761,115.653404 
	C293.508362,112.801567 285.261963,109.949730 277.015564,107.097900 
	C277.118988,106.610313 277.222412,106.122734 277.325867,105.635147 
	C286.759460,105.635147 296.193085,105.635147 305.936615,105.635147 
	C305.936615,99.884506 305.936615,94.122391 305.936615,88.068489 
	C302.293640,87.510498 298.865692,86.557068 295.433502,86.541557 
	C285.847443,86.498238 276.207397,86.306725 266.691650,87.232330 
	C260.805115,87.804924 255.785446,91.763374 254.702011,97.836563 
	C253.586945,104.087234 253.586685,110.655800 254.010254,117.024635 
	C254.355072,122.209419 257.979431,125.922211 262.841095,127.573227 
	C268.166077,129.381561 273.743103,130.441574 279.194244,131.888153 
	C280.940857,132.351654 282.636475,133.007492 284.355408,133.575317 
	C284.266418,134.142059 284.177429,134.708801 284.088440,135.275528 
	C274.321503,137.664062 264.480835,134.113419 254.390884,134.363449 
	C254.096924,140.306686 253.819992,145.905228 253.518219,152.006165 
	C267.364563,154.902847 281.034302,157.696701 294.989716,153.841293 
	C302.203979,151.848236 306.822937,146.937958 307.849152,139.451218 
	C308.999847,131.056137 310.485168,122.374397 301.754761,115.653404 
M434.886383,142.539520 
	C430.696075,124.128273 426.505768,105.717026 422.310211,87.282776 
	C410.276398,87.282776 398.560486,87.282776 386.650055,87.282776 
	C381.738281,109.519470 376.877960,131.523270 371.961182,153.782608 
	C379.813873,153.782608 387.394745,153.782608 395.525787,153.782608 
	C394.434387,145.541763 399.981201,146.484589 405.062286,146.672226 
	C407.194672,146.750977 409.332336,146.685333 411.506012,146.685333 
	C412.323669,149.333252 413.034332,151.634583 413.703552,153.801743 
	C421.693054,153.801743 429.312378,153.801743 437.265228,153.801743 
	C436.466522,150.154861 435.724426,146.766327 434.886383,142.539520 
M101.957764,87.267593 
	C90.052109,87.267593 78.146454,87.267593 66.011452,87.267593 
	C66.011452,109.049896 66.009193,130.350296 66.022575,151.650696 
	C66.022964,152.278259 66.188080,152.905716 66.301819,153.713882 
	C74.056381,153.713882 81.609795,153.713882 89.830452,153.713882 
	C89.830452,149.062485 89.830452,144.677216 89.830452,140.401779 
	C115.707458,137.787399 122.083656,133.247284 122.927628,117.244141 
	C123.948578,97.885170 119.256447,90.925697 101.957764,87.267593 
M366.282410,150.783539 
	C366.282410,145.571136 366.282410,140.358734 366.282410,135.305252 
	C359.668579,135.305252 354.025238,135.230652 348.384857,135.327972 
	C343.545074,135.411484 340.756104,133.033066 340.337708,128.377090 
	C339.922333,123.754829 339.814545,119.073334 340.006012,114.435745 
	C340.274963,107.921120 342.483704,105.864319 348.956085,105.719437 
	C354.535278,105.594543 360.119537,105.693520 365.991882,105.693520 
	C365.991882,99.902161 365.991882,94.133591 365.991882,88.187569 
	C354.859619,85.668015 343.772430,84.201530 332.467682,86.966118 
	C324.771210,88.848297 319.892822,93.552063 318.086060,101.186226 
	C315.054901,113.993721 314.982391,126.870979 318.042450,139.690948 
	C319.957062,147.712051 324.995148,152.757645 333.155548,154.416748 
	C343.603180,156.540848 353.970398,155.512833 364.268707,153.312958 
	C365.023804,153.151642 365.613129,152.214401 366.282410,150.783539 
M160.643417,134.993149 
	C159.198135,134.902359 157.752838,134.811584 155.750366,134.685791 
	C155.750366,118.706512 155.750366,103.010178 155.750366,87.340324 
	C147.606781,87.340324 140.049225,87.340324 132.487686,87.340324 
	C132.487686,109.698784 132.487686,131.708008 132.487686,153.758667 
	C147.615265,153.758667 162.358749,153.758667 177.354492,153.758667 
	C177.354492,147.461990 177.354492,141.415390 177.354492,134.993286 
	C171.883469,134.993286 166.750153,134.993286 160.643417,134.993149 
M577.297058,145.452179 
	C577.297058,148.216263 577.297058,150.980347 577.297058,153.803650 
	C585.349609,153.803650 592.762695,153.803650 600.438232,153.803650 
	C600.438232,147.213181 600.438232,140.834106 600.438232,134.300476 
	C592.691589,134.300476 585.178223,134.300476 577.757874,134.300476 
	C577.554077,134.915894 577.370056,135.218384 577.365967,135.523315 
	C577.325806,138.509201 577.315735,141.495483 577.297058,145.452179 
z"/>
<path fill="#EEF2F6" opacity="1.000000" stroke="none" 
	d="
M530.955139,132.187271 
	C530.908508,139.621658 530.908508,146.570526 530.908508,153.758621 
	C522.883667,153.758621 515.302368,153.758621 507.411438,153.758621 
	C507.411438,131.669434 507.411438,109.631905 507.411438,87.293350 
	C515.014465,87.293350 522.597778,87.293350 530.752319,87.293350 
	C530.752319,95.047279 530.752319,102.931221 530.752319,111.055878 
	C535.065430,111.055878 538.820374,111.055878 543.187744,111.055878 
	C543.187744,103.211197 543.187744,95.329430 543.187744,87.231331 
	C551.366272,87.231331 558.937439,87.231331 566.758057,87.231331 
	C566.758057,109.397102 566.758057,131.442917 566.758057,153.747894 
	C559.092407,153.747894 551.513489,153.747894 543.468140,153.747894 
	C543.468140,146.314545 543.468140,138.897446 543.468140,130.606888 
	C538.970947,131.001862 534.986389,131.351807 530.955139,132.187271 
z"/>
<path fill="#F0F4F8" opacity="1.000000" stroke="none" 
	d="
M642.525330,149.548538 
	C641.554321,145.245178 640.717590,141.348297 639.804016,137.093857 
	C638.265198,137.025925 636.662964,136.955200 634.580078,136.863266 
	C634.580078,142.535034 634.580078,147.939789 634.580078,153.673264 
	C626.565186,153.673264 619.007874,153.673264 611.222412,153.673264 
	C611.222412,131.652679 611.222412,109.704559 611.222412,87.318138 
	C612.306641,87.221397 613.563049,86.986038 614.812805,87.016853 
	C627.280640,87.324280 639.820557,86.963768 652.191650,88.235893 
	C662.400635,89.285698 667.166687,95.557144 667.986267,105.788124 
	C668.702087,114.723694 668.639893,123.474960 661.946106,130.688797 
	C661.349121,131.332199 661.635620,133.097473 661.940613,134.225876 
	C663.669800,140.624817 665.529602,146.988480 667.525574,153.998489 
	C659.933044,153.998489 652.836060,154.171036 645.765320,153.817795 
	C644.668518,153.763000 643.691833,151.302841 642.525330,149.548538 
M644.352783,112.409134 
	C643.929749,105.730980 642.005005,104.547844 634.639221,106.306602 
	C634.639221,110.199287 634.639221,114.048195 634.639221,118.230042 
	C638.846863,117.726601 643.803162,119.838074 644.352783,112.409134 
z"/>
<path fill="#FC0101" opacity="1.000000" stroke="none" 
	d="
M208.718948,131.562103 
	C209.554642,136.445221 212.988281,136.113358 216.135315,135.877686 
	C220.157623,135.576477 220.657104,132.412476 220.678726,129.317169 
	C220.763718,117.158043 220.724518,104.998047 220.731094,92.838371 
	C220.732056,91.059204 220.731216,89.280037 220.731216,87.252121 
	C228.707291,87.252121 236.107635,87.252121 243.760162,87.252121 
	C243.760162,103.779083 244.291534,120.076134 243.564529,136.316849 
	C243.115265,146.353241 237.373978,151.711090 227.447159,154.091385 
	C218.728455,156.182007 209.945572,156.158905 201.245483,154.064072 
	C190.979965,151.592300 185.476669,145.572906 185.197296,135.145432 
	C184.774109,119.350334 185.086746,103.535522 185.086746,87.362877 
	C192.827560,87.362877 200.396240,87.362877 208.701721,87.362877 
	C208.701721,101.908417 208.701721,116.507706 208.718948,131.562103 
z"/>
<path fill="#EFF3F7" opacity="1.000000" stroke="none" 
	d="
M700.892822,98.027084 
	C700.892883,109.014107 701.019104,119.506966 700.832642,129.994263 
	C700.755066,134.360367 702.691223,135.960648 706.781494,136.029541 
	C710.962891,136.099945 712.982971,134.165176 712.986694,130.058960 
	C712.999634,115.921143 712.991699,101.783318 712.991699,87.321190 
	C720.736023,87.321190 728.277771,87.321190 735.951477,87.321190 
	C735.951477,103.856773 736.342957,120.297676 735.791382,136.706863 
	C735.502319,145.307358 730.223572,151.245132 721.822205,153.597855 
	C711.870483,156.384750 701.769226,156.355270 691.780090,153.642181 
	C682.296082,151.066269 677.699768,144.128769 677.432251,134.866470 
	C676.976868,119.102104 677.306763,103.315056 677.306763,87.267532 
	C685.073975,87.267532 692.657288,87.267532 700.892822,87.267532 
	C700.892822,90.670837 700.892822,94.100754 700.892822,98.027084 
z"/>
<path fill="#EEF2F7" opacity="1.000000" stroke="none" 
	d="
M451.897186,127.187653 
	C441.578125,121.420403 442.389740,111.907631 443.411469,102.809097 
	C444.544373,92.720779 450.110199,87.607178 460.356689,86.170082 
	C472.340942,84.489273 484.171692,86.090111 495.981140,88.098312 
	C495.981140,94.141159 495.981140,99.924843 495.981140,105.634766 
	C486.243256,105.634766 476.798279,105.634766 467.353302,105.634766 
	C467.209015,106.034340 467.064697,106.433907 466.920380,106.833481 
	C468.328064,107.577873 469.660156,108.576721 471.156891,109.021233 
	C476.714478,110.671753 482.422638,111.860764 487.892487,113.749443 
	C494.231903,115.938393 498.256683,120.338203 498.252716,127.451370 
	C498.250336,131.746857 498.475861,136.139038 497.691223,140.317322 
	C496.075226,148.922531 489.906952,153.257553 481.785370,154.730209 
	C468.929932,157.061234 456.338593,154.798645 443.519165,152.048737 
	C443.816711,146.015976 444.099243,140.287033 444.396912,134.251999 
	C454.555145,134.276428 464.422424,137.573990 474.282471,135.328537 
	C474.373566,134.785461 474.464691,134.242386 474.555817,133.699310 
	C467.116455,131.578873 459.677124,129.458450 451.897186,127.187653 
z"/>
<path fill="#FB0101" opacity="1.000000" stroke="none" 
	d="
M302.060486,115.858154 
	C310.485168,122.374397 308.999847,131.056137 307.849152,139.451218 
	C306.822937,146.937958 302.203979,151.848236 294.989716,153.841293 
	C281.034302,157.696701 267.364563,154.902847 253.518219,152.006165 
	C253.819992,145.905228 254.096924,140.306686 254.390884,134.363449 
	C264.480835,134.113419 274.321503,137.664062 284.088440,135.275528 
	C284.177429,134.708801 284.266418,134.142059 284.355408,133.575317 
	C282.636475,133.007492 280.940857,132.351654 279.194244,131.888153 
	C273.743103,130.441574 268.166077,129.381561 262.841095,127.573227 
	C257.979431,125.922211 254.355072,122.209419 254.010254,117.024635 
	C253.586685,110.655800 253.586945,104.087234 254.702011,97.836563 
	C255.785446,91.763374 260.805115,87.804924 266.691650,87.232330 
	C276.207397,86.306725 285.847443,86.498238 295.433502,86.541557 
	C298.865692,86.557068 302.293640,87.510498 305.936615,88.068489 
	C305.936615,94.122391 305.936615,99.884506 305.936615,105.635147 
	C296.193085,105.635147 286.759460,105.635147 277.325867,105.635147 
	C277.222412,106.122734 277.118988,106.610313 277.015564,107.097900 
	C285.261963,109.949730 293.508362,112.801567 302.060486,115.858154 
z"/>
<path fill="#EFF3F7" opacity="1.000000" stroke="none" 
	d="
M434.934357,142.958664 
	C435.724426,146.766327 436.466522,150.154861 437.265228,153.801743 
	C429.312378,153.801743 421.693054,153.801743 413.703552,153.801743 
	C413.034332,151.634583 412.323669,149.333252 411.506012,146.685333 
	C409.332336,146.685333 407.194672,146.750977 405.062286,146.672226 
	C399.981201,146.484589 394.434387,145.541763 395.525787,153.782608 
	C387.394745,153.782608 379.813873,153.782608 371.961182,153.782608 
	C376.877960,131.523270 381.738281,109.519470 386.650055,87.282776 
	C398.560486,87.282776 410.276398,87.282776 422.310211,87.282776 
	C426.505768,105.717026 430.696075,124.128273 434.934357,142.958664 
M403.658691,128.348297 
	C405.389069,128.348297 407.119446,128.348297 409.287170,128.348297 
	C407.928040,120.130310 406.700470,112.707878 405.472931,105.285454 
	C404.855530,105.302406 404.238129,105.319366 403.620697,105.336319 
	C402.415863,112.597237 401.179657,119.853645 400.130157,127.136948 
	C400.091400,127.405922 401.876465,127.937698 403.658691,128.348297 
z"/>
<path fill="#FC0001" opacity="1.000000" stroke="none" 
	d="
M102.392822,87.349663 
	C119.256447,90.925697 123.948578,97.885170 122.927628,117.244141 
	C122.083656,133.247284 115.707458,137.787399 89.830452,140.401779 
	C89.830452,144.677216 89.830452,149.062485 89.830452,153.713882 
	C81.609795,153.713882 74.056381,153.713882 66.301819,153.713882 
	C66.188080,152.905716 66.022964,152.278259 66.022575,151.650696 
	C66.009193,130.350296 66.011452,109.049896 66.011452,87.267593 
	C78.146454,87.267593 90.052109,87.267593 102.392822,87.349663 
M89.680748,116.394348 
	C89.773933,117.845863 89.867119,119.297371 90.075256,122.539330 
	C93.411644,120.660606 97.179558,119.809158 98.012482,117.762985 
	C99.172752,114.912643 98.996651,110.777412 97.713646,107.955368 
	C96.961700,106.301407 92.948448,106.130142 89.680107,105.054184 
	C89.680107,109.509926 89.680107,112.467850 89.680748,116.394348 
z"/>
<path fill="#EEF2F6" opacity="1.000000" stroke="none" 
	d="
M366.280945,151.210724 
	C365.613129,152.214401 365.023804,153.151642 364.268707,153.312958 
	C353.970398,155.512833 343.603180,156.540848 333.155548,154.416748 
	C324.995148,152.757645 319.957062,147.712051 318.042450,139.690948 
	C314.982391,126.870979 315.054901,113.993721 318.086060,101.186226 
	C319.892822,93.552063 324.771210,88.848297 332.467682,86.966118 
	C343.772430,84.201530 354.859619,85.668015 365.991882,88.187569 
	C365.991882,94.133591 365.991882,99.902161 365.991882,105.693520 
	C360.119537,105.693520 354.535278,105.594543 348.956085,105.719437 
	C342.483704,105.864319 340.274963,107.921120 340.006012,114.435745 
	C339.814545,119.073334 339.922333,123.754829 340.337708,128.377090 
	C340.756104,133.033066 343.545074,135.411484 348.384857,135.327972 
	C354.025238,135.230652 359.668579,135.305252 366.282410,135.305252 
	C366.282410,140.358734 366.282410,145.571136 366.280945,151.210724 
z"/>
<path fill="#FB0101" opacity="1.000000" stroke="none" 
	d="
M161.130127,134.993225 
	C166.750153,134.993286 171.883469,134.993286 177.354492,134.993286 
	C177.354492,141.415390 177.354492,147.461990 177.354492,153.758667 
	C162.358749,153.758667 147.615265,153.758667 132.487686,153.758667 
	C132.487686,131.708008 132.487686,109.698784 132.487686,87.340324 
	C140.049225,87.340324 147.606781,87.340324 155.750366,87.340324 
	C155.750366,103.010178 155.750366,118.706512 155.750366,134.685791 
	C157.752838,134.811584 159.198135,134.902359 161.130127,134.993225 
z"/>
<path fill="#EAEEF3" opacity="1.000000" stroke="none" 
	d="
M577.297119,144.966919 
	C577.315735,141.495483 577.325806,138.509201 577.365967,135.523315 
	C577.370056,135.218384 577.554077,134.915894 577.757874,134.300476 
	C585.178223,134.300476 592.691589,134.300476 600.438232,134.300476 
	C600.438232,140.834106 600.438232,147.213181 600.438232,153.803650 
	C592.762695,153.803650 585.349609,153.803650 577.297058,153.803650 
	C577.297058,150.980347 577.297058,148.216263 577.297119,144.966919 
z"/>
<path fill="#273243" opacity="1.000000" stroke="none" 
	d="
M644.345703,112.798981 
	C643.803162,119.838074 638.846863,117.726601 634.639221,118.230042 
	C634.639221,114.048195 634.639221,110.199287 634.639221,106.306602 
	C642.005005,104.547844 643.929749,105.730980 644.345703,112.798981 
z"/>
<path fill="#273142" opacity="1.000000" stroke="none" 
	d="
M403.235168,128.347656 
	C401.876465,127.937698 400.091400,127.405922 400.130157,127.136948 
	C401.179657,119.853645 402.415863,112.597237 403.620697,105.336319 
	C404.238129,105.319366 404.855530,105.302406 405.472931,105.285454 
	C406.700470,112.707878 407.928040,120.130310 409.287170,128.348297 
	C407.119446,128.348297 405.389069,128.348297 403.235168,128.347656 
z"/>
<path fill="#22293A" opacity="1.000000" stroke="none" 
	d="
M89.680428,115.910065 
	C89.680107,112.467850 89.680107,109.509926 89.680107,105.054184 
	C92.948448,106.130142 96.961700,106.301407 97.713646,107.955368 
	C98.996651,110.777412 99.172752,114.912643 98.012482,117.762985 
	C97.179558,119.809158 93.411644,120.660606 90.075256,122.539330 
	C89.867119,119.297371 89.773933,117.845863 89.680428,115.910065 
z"/>
</svg>