<svg version="1.1" id="Layer_1" xmlns="http://www.w3.org/2000/svg" xmlns:xlink="http://www.w3.org/1999/xlink" x="0px" y="0px"
	 width="100%" viewBox="0 0 800 240" enable-background="new 0 0 800 240" xml:space="preserve">
<path fill="#FFFFFF" opacity="1.000000" stroke="none" 
	d="
M575.000000,241.000000 
	C383.379242,241.000000 192.258499,241.000000 1.068879,241.000000 
	C1.068879,161.065186 1.068879,81.130295 1.068879,1.097704 
	C267.666656,1.097704 534.333313,1.097704 800.972656,1.097704 
	C800.972656,81.074875 800.972656,161.037445 800.972656,241.000000 
	C725.796936,241.000000 650.648438,241.000000 575.000000,241.000000 
M567.006042,119.500000 
	C567.006042,108.743538 567.006042,97.987068 567.006042,87.144623 
	C558.982788,87.144623 551.533020,87.144623 543.428772,87.144623 
	C543.428772,95.332458 543.428772,103.378380 543.428772,111.328217 
	C538.870728,111.328217 534.972046,111.328217 530.599609,111.328217 
	C530.599609,103.080124 530.599609,95.165253 530.599609,87.390343 
	C522.557617,87.390343 515.012268,87.390343 507.514771,87.390343 
	C507.514771,109.707878 507.514771,131.628143 507.514771,153.701172 
	C515.291443,153.701172 522.833069,153.701172 530.785217,153.701172 
	C530.785217,145.988205 530.785217,138.568604 530.785217,131.035553 
	C535.266846,131.035553 539.328552,131.035553 543.735229,131.035553 
	C543.735229,138.803925 543.735229,146.258179 543.735229,153.705841 
	C551.657043,153.705841 559.225830,153.705841 567.006042,153.705841 
	C567.006042,142.437943 567.006042,131.468964 567.006042,119.500000 
M610.998779,141.489746 
	C610.998779,145.589676 610.998779,149.689606 610.998779,153.737671 
	C618.998840,153.737671 626.413086,153.737671 634.169189,153.737671 
	C634.169189,148.040253 634.169189,142.599365 634.169189,137.283081 
	C638.732788,135.583313 640.523193,137.302505 641.017578,141.537186 
	C641.400879,144.821320 642.217041,148.076279 643.116089,151.266617 
	C643.407471,152.300476 644.549500,153.848465 645.338562,153.870575 
	C652.541565,154.072388 659.752502,153.989120 667.368103,153.989120 
	C665.342957,146.876648 663.455017,140.530365 661.784180,134.127411 
	C661.465881,132.907379 661.505981,131.038269 662.228027,130.188889 
	C668.934326,122.299751 668.770203,113.052872 667.581604,103.682449 
	C666.487976,95.061272 661.316345,89.249916 652.845520,88.445709 
	C639.041626,87.135185 625.121521,87.048050 610.998779,86.433723 
	C610.998779,105.227943 610.998779,122.859978 610.998779,141.489746 
M677.283386,97.537865 
	C677.283386,108.694466 677.177917,119.852318 677.309509,131.007370 
	C677.485168,145.905762 683.384094,153.081772 697.975464,154.684402 
	C704.979370,155.453659 712.299133,155.025314 719.281189,153.915054 
	C729.376343,152.309738 735.363464,146.169601 735.779846,136.080261 
	C736.449585,119.853699 735.959595,103.579262 735.959595,87.212448 
	C728.193481,87.212448 720.784729,87.212448 712.994507,87.212448 
	C712.994507,89.048248 712.994568,90.671974 712.994446,92.295700 
	C712.993164,104.950882 712.944519,117.606339 713.016785,130.261093 
	C713.041504,134.588806 710.965698,136.085800 706.822510,136.062057 
	C702.706848,136.038437 700.560242,134.606613 700.685974,130.232895 
	C700.824646,125.407936 700.716736,120.575897 700.716675,115.746941 
	C700.716553,106.300529 700.716614,96.854118 700.716614,86.994431 
	C696.440247,86.994431 692.647583,86.994423 688.854919,86.994423 
	C685.094116,86.994423 681.333252,86.994431 677.283447,86.994431 
	C677.283447,90.612030 677.283447,93.583450 677.283386,97.537865 
M184.999527,102.503372 
	C184.999695,112.325783 184.878189,122.150093 185.030960,131.970123 
	C185.220215,144.133759 190.276505,151.873062 200.826019,153.654053 
	C208.723572,154.987320 217.099625,155.206604 225.037781,154.181229 
	C237.352005,152.590576 241.843979,147.323532 243.643829,135.030350 
	C244.145950,131.600693 243.977234,128.062042 243.986954,124.573013 
	C244.021576,112.147629 244.000473,99.722092 244.000473,87.250671 
	C236.055283,87.250671 228.648758,87.250671 220.898239,87.250671 
	C220.898239,89.126869 220.898315,90.755875 220.898209,92.384880 
	C220.897476,104.704529 220.885681,117.024193 220.902252,129.343811 
	C220.907639,133.344650 219.839188,136.130112 214.997620,136.050232 
	C209.612000,135.961365 208.300568,134.876083 208.289230,129.282974 
	C208.260971,115.341667 208.279922,101.400276 208.279922,87.295303 
	C200.334595,87.295303 192.790466,87.295303 184.999527,87.295303 
	C184.999527,92.227554 184.999527,96.866196 184.999527,102.503372 
M278.524200,155.282867 
	C282.018799,155.198914 285.535583,155.336716 289.003815,154.989441 
	C299.406464,153.947800 306.235260,148.928162 307.533783,139.827896 
	C310.124481,121.671875 307.503632,115.829544 290.973083,111.668365 
	C287.431244,110.776794 283.856140,109.995552 280.363953,108.939941 
	C279.061096,108.546112 277.951324,107.513435 276.753510,106.772057 
	C276.905487,106.362427 277.057465,105.952789 277.209473,105.543152 
	C286.532410,105.543152 295.855347,105.543152 305.638763,105.543152 
	C305.638763,99.881134 305.638763,94.000633 305.638763,87.273056 
	C294.899597,86.820297 284.286865,85.953766 273.682404,86.045135 
	C263.340790,86.134247 256.278107,90.917648 254.535446,98.907402 
	C253.425964,103.994133 253.411591,109.434296 253.674713,114.677406 
	C254.019012,121.537872 258.092712,126.100662 264.564392,128.090729 
	C269.781097,129.694885 275.196075,130.645065 280.490784,132.010529 
	C282.029236,132.407272 283.456604,133.234818 284.934875,133.864899 
	C284.815338,134.374741 284.695801,134.884583 284.576263,135.394440 
	C274.787170,137.512665 265.041656,134.902954 254.676483,134.295166 
	C254.336304,140.080231 254.000336,145.793732 253.611069,152.413742 
	C261.817993,153.393814 269.681122,154.332840 278.524200,155.282867 
M445.047089,96.841049 
	C444.366302,101.589142 443.030975,106.352188 443.138977,111.082268 
	C443.375000,121.418861 447.260681,126.140808 457.194275,129.049728 
	C461.643768,130.352692 466.287628,130.979355 470.807648,132.061691 
	C472.223175,132.400650 473.522400,133.225586 474.874847,133.828064 
	C474.770142,134.384201 474.665405,134.940323 474.560699,135.496460 
	C464.693909,137.433029 454.829010,134.878922 444.587372,134.259689 
	C444.282867,140.235779 443.989990,145.983795 443.693909,151.794968 
	C455.672821,154.844940 467.379883,156.084671 479.237823,154.965195 
	C489.439911,154.002045 496.143341,148.970001 497.483765,140.108994 
	C500.325287,121.324768 497.229126,115.719398 480.805237,111.598549 
	C477.262329,110.709602 473.676178,109.966370 470.187653,108.901459 
	C468.936859,108.519653 467.915253,107.387192 466.789032,106.597328 
	C466.965515,106.247940 467.141968,105.898560 467.318451,105.549179 
	C476.647095,105.549179 485.975769,105.549179 495.706299,105.549179 
	C495.706299,99.891006 495.706299,94.130882 495.706299,87.284401 
	C485.037628,86.833908 474.296844,85.917732 463.573090,86.086105 
	C456.109833,86.203285 449.056122,88.498726 445.047089,96.841049 
M385.925110,91.396622 
	C381.343750,112.128159 376.762390,132.859695 372.130737,153.818787 
	C379.837158,153.818787 387.291748,153.818787 394.927917,153.818787 
	C395.308746,152.186325 395.436462,150.462616 396.137970,149.017441 
	C396.664581,147.932510 397.881958,146.506607 398.872467,146.440430 
	C403.123962,146.156403 407.405243,146.319244 411.606079,146.319244 
	C412.475830,149.221451 413.180298,151.572113 413.819916,153.706421 
	C421.773499,153.706421 429.334900,153.706421 437.157196,153.706421 
	C432.087646,131.262405 427.094910,109.158554 422.089417,86.998085 
	C411.095123,86.998085 400.615997,87.130585 390.144165,86.912910 
	C387.211304,86.851952 386.397400,88.205917 385.925110,91.396622 
M117.117020,132.603577 
	C124.439171,123.322815 123.782707,112.795998 121.579536,102.181732 
	C120.088264,94.997169 115.345940,89.881401 108.205605,89.090164 
	C94.297066,87.548912 80.269867,87.078453 66.292778,86.164581 
	C66.292778,109.664177 66.292778,131.708054 66.292778,153.780945 
	C74.013725,153.780945 81.437973,153.780945 89.335022,153.780945 
	C89.335022,149.168365 89.335022,144.759689 89.335022,140.425842 
	C110.081329,138.013214 110.825180,137.811844 117.117020,132.603577 
M315.996643,122.426270 
	C316.337708,126.565811 316.497711,130.729858 317.054077,134.840271 
	C318.680176,146.854630 324.336487,153.143494 335.823822,154.734436 
	C345.898895,156.129791 355.976929,155.357742 365.808838,152.763290 
	C365.808838,146.781540 365.808838,141.037552 365.808838,135.680740 
	C359.895020,135.680740 354.285828,135.824478 348.687317,135.641174 
	C342.838928,135.449692 340.547302,133.277054 340.087158,127.486465 
	C339.758606,123.352058 339.612396,119.171066 339.821930,115.032990 
	C340.205109,107.466576 342.409332,105.383690 350.056091,105.363220 
	C355.137604,105.349617 360.220306,105.791084 365.714294,106.048134 
	C365.714294,99.857811 365.714294,94.111725 365.714294,87.305969 
	C356.989868,86.840576 348.250977,85.828636 339.540985,86.035400 
	C325.860229,86.360176 318.781006,93.103737 317.051971,106.555046 
	C316.417877,111.488152 316.332367,116.491768 315.996643,122.426270 
M161.566528,134.989456 
	C159.654724,134.989456 157.742905,134.989456 155.525055,134.989456 
	C155.525055,118.655602 155.525055,103.051483 155.525055,87.332382 
	C147.675690,87.332382 140.147095,87.332382 132.665497,87.332382 
	C132.665497,109.715897 132.665497,131.754562 132.665497,153.858124 
	C147.645645,153.858124 162.270432,153.858124 177.103027,153.858124 
	C177.103027,147.595245 177.103027,141.484100 177.103027,134.989456 
	C172.138412,134.989456 167.343155,134.989456 161.566528,134.989456 
M600.308044,145.487000 
	C600.308044,141.735703 600.308044,137.984421 600.308044,134.283768 
	C592.405457,134.283768 585.149231,134.283768 578.016357,134.283768 
	C578.016357,140.964478 578.016357,147.357361 578.016357,153.714203 
	C585.599854,153.714203 592.856018,153.714203 600.308044,153.714203 
	C600.308044,151.111389 600.308044,148.792542 600.308044,145.487000 
z"/>
<path fill="#121A2D" opacity="1.000000" stroke="none" 
	d="
M567.006042,120.000000 
	C567.006042,131.468964 567.006042,142.437943 567.006042,153.705841 
	C559.225830,153.705841 551.657043,153.705841 543.735229,153.705841 
	C543.735229,146.258179 543.735229,138.803925 543.735229,131.035553 
	C539.328552,131.035553 535.266846,131.035553 530.785217,131.035553 
	C530.785217,138.568604 530.785217,145.988205 530.785217,153.701172 
	C522.833069,153.701172 515.291443,153.701172 507.514771,153.701172 
	C507.514771,131.628143 507.514771,109.707878 507.514771,87.390343 
	C515.012268,87.390343 522.557617,87.390343 530.599609,87.390343 
	C530.599609,95.165253 530.599609,103.080124 530.599609,111.328217 
	C534.972046,111.328217 538.870728,111.328217 543.428772,111.328217 
	C543.428772,103.378380 543.428772,95.332458 543.428772,87.144623 
	C551.533020,87.144623 558.982788,87.144623 567.006042,87.144623 
	C567.006042,97.987068 567.006042,108.743538 567.006042,120.000000 
z"/>
<path fill="#10182B" opacity="1.000000" stroke="none" 
	d="
M610.998779,140.990875 
	C610.998779,122.859978 610.998779,105.227943 610.998779,86.433723 
	C625.121521,87.048050 639.041626,87.135185 652.845520,88.445709 
	C661.316345,89.249916 666.487976,95.061272 667.581604,103.682449 
	C668.770203,113.052872 668.934326,122.299751 662.228027,130.188889 
	C661.505981,131.038269 661.465881,132.907379 661.784180,134.127411 
	C663.455017,140.530365 665.342957,146.876648 667.368103,153.989120 
	C659.752502,153.989120 652.541565,154.072388 645.338562,153.870575 
	C644.549500,153.848465 643.407471,152.300476 643.116089,151.266617 
	C642.217041,148.076279 641.400879,144.821320 641.017578,141.537186 
	C640.523193,137.302505 638.732788,135.583313 634.169189,137.283081 
	C634.169189,142.599365 634.169189,148.040253 634.169189,153.737671 
	C626.413086,153.737671 618.998840,153.737671 610.998779,153.737671 
	C610.998779,149.689606 610.998779,145.589676 610.998779,140.990875 
M644.737732,112.373894 
	C644.005310,105.548775 641.609131,104.090057 634.248047,106.050255 
	C634.248047,109.966057 634.248047,113.899773 634.248047,117.802116 
	C641.890930,119.077370 642.961853,118.592285 644.737732,112.373894 
z"/>
<path fill="#121A2D" opacity="1.000000" stroke="none" 
	d="
M677.283447,97.046371 
	C677.283447,93.583450 677.283447,90.612030 677.283447,86.994431 
	C681.333252,86.994431 685.094116,86.994423 688.854919,86.994423 
	C692.647583,86.994423 696.440247,86.994431 700.716614,86.994431 
	C700.716614,96.854118 700.716553,106.300529 700.716675,115.746941 
	C700.716736,120.575897 700.824646,125.407936 700.685974,130.232895 
	C700.560242,134.606613 702.706848,136.038437 706.822510,136.062057 
	C710.965698,136.085800 713.041504,134.588806 713.016785,130.261093 
	C712.944519,117.606339 712.993164,104.950882 712.994446,92.295700 
	C712.994568,90.671974 712.994507,89.048248 712.994507,87.212448 
	C720.784729,87.212448 728.193481,87.212448 735.959595,87.212448 
	C735.959595,103.579262 736.449585,119.853699 735.779846,136.080261 
	C735.363464,146.169601 729.376343,152.309738 719.281189,153.915054 
	C712.299133,155.025314 704.979370,155.453659 697.975464,154.684402 
	C683.384094,153.081772 677.485168,145.905762 677.309509,131.007370 
	C677.177917,119.852318 677.283386,108.694466 677.283447,97.046371 
z"/>
<path fill="#FE0101" opacity="1.000000" stroke="none" 
	d="
M184.999527,102.004105 
	C184.999527,96.866196 184.999527,92.227554 184.999527,87.295303 
	C192.790466,87.295303 200.334595,87.295303 208.279922,87.295303 
	C208.279922,101.400276 208.260971,115.341667 208.289230,129.282974 
	C208.300568,134.876083 209.612000,135.961365 214.997620,136.050232 
	C219.839188,136.130112 220.907639,133.344650 220.902252,129.343811 
	C220.885681,117.024193 220.897476,104.704529 220.898209,92.384880 
	C220.898315,90.755875 220.898239,89.126869 220.898239,87.250671 
	C228.648758,87.250671 236.055283,87.250671 244.000473,87.250671 
	C244.000473,99.722092 244.021576,112.147629 243.986954,124.573013 
	C243.977234,128.062042 244.145950,131.600693 243.643829,135.030350 
	C241.843979,147.323532 237.352005,152.590576 225.037781,154.181229 
	C217.099625,155.206604 208.723572,154.987320 200.826019,153.654053 
	C190.276505,151.873062 185.220215,144.133759 185.030960,131.970123 
	C184.878189,122.150093 184.999695,112.325783 184.999527,102.004105 
z"/>
<path fill="#FE0202" opacity="1.000000" stroke="none" 
	d="
M278.034210,155.277374 
	C269.681122,154.332840 261.817993,153.393814 253.611069,152.413742 
	C254.000336,145.793732 254.336304,140.080231 254.676483,134.295166 
	C265.041656,134.902954 274.787170,137.512665 284.576263,135.394440 
	C284.695801,134.884583 284.815338,134.374741 284.934875,133.864899 
	C283.456604,133.234818 282.029236,132.407272 280.490784,132.010529 
	C275.196075,130.645065 269.781097,129.694885 264.564392,128.090729 
	C258.092712,126.100662 254.019012,121.537872 253.674713,114.677406 
	C253.411591,109.434296 253.425964,103.994133 254.535446,98.907402 
	C256.278107,90.917648 263.340790,86.134247 273.682404,86.045135 
	C284.286865,85.953766 294.899597,86.820297 305.638763,87.273056 
	C305.638763,94.000633 305.638763,99.881134 305.638763,105.543152 
	C295.855347,105.543152 286.532410,105.543152 277.209473,105.543152 
	C277.057465,105.952789 276.905487,106.362427 276.753510,106.772057 
	C277.951324,107.513435 279.061096,108.546112 280.363953,108.939941 
	C283.856140,109.995552 287.431244,110.776794 290.973083,111.668365 
	C307.503632,115.829544 310.124481,121.671875 307.533783,139.827896 
	C306.235260,148.928162 299.406464,153.947800 289.003815,154.989441 
	C285.535583,155.336716 282.018799,155.198914 278.034210,155.277374 
z"/>
<path fill="#11192C" opacity="1.000000" stroke="none" 
	d="
M445.201355,96.486870 
	C449.056122,88.498726 456.109833,86.203285 463.573090,86.086105 
	C474.296844,85.917732 485.037628,86.833908 495.706299,87.284401 
	C495.706299,94.130882 495.706299,99.891006 495.706299,105.549179 
	C485.975769,105.549179 476.647095,105.549179 467.318451,105.549179 
	C467.141968,105.898560 466.965515,106.247940 466.789032,106.597328 
	C467.915253,107.387192 468.936859,108.519653 470.187653,108.901459 
	C473.676178,109.966370 477.262329,110.709602 480.805237,111.598549 
	C497.229126,115.719398 500.325287,121.324768 497.483765,140.108994 
	C496.143341,148.970001 489.439911,154.002045 479.237823,154.965195 
	C467.379883,156.084671 455.672821,154.844940 443.693909,151.794968 
	C443.989990,145.983795 444.282867,140.235779 444.587372,134.259689 
	C454.829010,134.878922 464.693909,137.433029 474.560699,135.496460 
	C474.665405,134.940323 474.770142,134.384201 474.874847,133.828064 
	C473.522400,133.225586 472.223175,132.400650 470.807648,132.061691 
	C466.287628,130.979355 461.643768,130.352692 457.194275,129.049728 
	C447.260681,126.140808 443.375000,121.418861 443.138977,111.082268 
	C443.030975,106.352188 444.366302,101.589142 445.201355,96.486870 
z"/>
<path fill="#10182B" opacity="1.000000" stroke="none" 
	d="
M385.967407,90.969078 
	C386.397400,88.205917 387.211304,86.851952 390.144165,86.912910 
	C400.615997,87.130585 411.095123,86.998085 422.089417,86.998085 
	C427.094910,109.158554 432.087646,131.262405 437.157196,153.706421 
	C429.334900,153.706421 421.773499,153.706421 413.819916,153.706421 
	C413.180298,151.572113 412.475830,149.221451 411.606079,146.319244 
	C407.405243,146.319244 403.123962,146.156403 398.872467,146.440430 
	C397.881958,146.506607 396.664581,147.932510 396.137970,149.017441 
	C395.436462,150.462616 395.308746,152.186325 394.927917,153.818787 
	C387.291748,153.818787 379.837158,153.818787 372.130737,153.818787 
	C376.762390,132.859695 381.343750,112.128159 385.967407,90.969078 
M408.782623,123.734650 
	C407.740173,117.509338 406.697723,111.284027 405.655243,105.058723 
	C404.958038,105.015617 404.260834,104.972511 403.563629,104.929405 
	C402.248993,112.679634 400.934357,120.429871 399.560242,128.530701 
	C403.073120,128.530701 405.819458,128.530701 408.898804,128.530701 
	C408.898804,127.132141 408.898804,125.877289 408.782623,123.734650 
z"/>
<path fill="#FE0101" opacity="1.000000" stroke="none" 
	d="
M116.860352,132.860306 
	C110.825180,137.811844 110.081329,138.013214 89.335022,140.425842 
	C89.335022,144.759689 89.335022,149.168365 89.335022,153.780945 
	C81.437973,153.780945 74.013725,153.780945 66.292778,153.780945 
	C66.292778,131.708054 66.292778,109.664177 66.292778,86.164581 
	C80.269867,87.078453 94.297066,87.548912 108.205605,89.090164 
	C115.345940,89.881401 120.088264,94.997169 121.579536,102.181732 
	C123.782707,112.795998 124.439171,123.322815 116.860352,132.860306 
M93.120705,105.253044 
	C91.828911,106.031235 89.493126,106.723122 89.420456,107.602097 
	C89.043869,112.157455 89.245316,116.760605 89.245316,121.579124 
	C94.027916,121.351501 98.222191,121.451714 99.193092,115.827393 
	C100.212486,109.922127 98.892944,107.165947 93.120705,105.253044 
z"/>
<path fill="#11192C" opacity="1.000000" stroke="none" 
	d="
M315.996643,121.944748 
	C316.332367,116.491768 316.417877,111.488152 317.051971,106.555046 
	C318.781006,93.103737 325.860229,86.360176 339.540985,86.035400 
	C348.250977,85.828636 356.989868,86.840576 365.714294,87.305969 
	C365.714294,94.111725 365.714294,99.857811 365.714294,106.048134 
	C360.220306,105.791084 355.137604,105.349617 350.056091,105.363220 
	C342.409332,105.383690 340.205109,107.466576 339.821930,115.032990 
	C339.612396,119.171066 339.758606,123.352058 340.087158,127.486465 
	C340.547302,133.277054 342.838928,135.449692 348.687317,135.641174 
	C354.285828,135.824478 359.895020,135.680740 365.808838,135.680740 
	C365.808838,141.037552 365.808838,146.781540 365.808838,152.763290 
	C355.976929,155.357742 345.898895,156.129791 335.823822,154.734436 
	C324.336487,153.143494 318.680176,146.854630 317.054077,134.840271 
	C316.497711,130.729858 316.337708,126.565811 315.996643,121.944748 
z"/>
<path fill="#FE0606" opacity="1.000000" stroke="none" 
	d="
M162.057205,134.989456 
	C167.343155,134.989456 172.138412,134.989456 177.103027,134.989456 
	C177.103027,141.484100 177.103027,147.595245 177.103027,153.858124 
	C162.270432,153.858124 147.645645,153.858124 132.665497,153.858124 
	C132.665497,131.754562 132.665497,109.715897 132.665497,87.332382 
	C140.147095,87.332382 147.675690,87.332382 155.525055,87.332382 
	C155.525055,103.051483 155.525055,118.655602 155.525055,134.989456 
	C157.742905,134.989456 159.654724,134.989456 162.057205,134.989456 
z"/>
<path fill="#0F172A" opacity="1.000000" stroke="none" 
	d="
M600.308044,145.980347 
	C600.308044,148.792542 600.308044,151.111389 600.308044,153.714203 
	C592.856018,153.714203 585.599854,153.714203 578.016357,153.714203 
	C578.016357,147.357361 578.016357,140.964478 578.016357,134.283768 
	C585.149231,134.283768 592.405457,134.283768 600.308044,134.283768 
	C600.308044,137.984421 600.308044,141.735703 600.308044,145.980347 
z"/>
<path fill="#F0F0F1" opacity="1.000000" stroke="none" 
	d="
M644.729797,112.770355 
	C642.961853,118.592285 641.890930,119.077370 634.248047,117.802116 
	C634.248047,113.899773 634.248047,109.966057 634.248047,106.050255 
	C641.609131,104.090057 644.005310,105.548775 644.729797,112.770355 
z"/>
<path fill="#EEEEEF" opacity="1.000000" stroke="none" 
	d="
M408.840698,124.178543 
	C408.898804,125.877289 408.898804,127.132141 408.898804,128.530701 
	C405.819458,128.530701 403.073120,128.530701 399.560242,128.530701 
	C400.934357,120.429871 402.248993,112.679634 403.563629,104.929405 
	C404.260834,104.972511 404.958038,105.015617 405.655243,105.058723 
	C406.697723,111.284027 407.740173,117.509338 408.840698,124.178543 
z"/>
<path fill="#FFF0F0" opacity="1.000000" stroke="none" 
	d="
M93.520905,105.307434 
	C98.892944,107.165947 100.212486,109.922127 99.193092,115.827393 
	C98.222191,121.451714 94.027916,121.351501 89.245316,121.579124 
	C89.245316,116.760605 89.043869,112.157455 89.420456,107.602097 
	C89.493126,106.723122 91.828911,106.031235 93.520905,105.307434 
z"/>
</svg>